<svg width="240" height="34" viewBox="0 0 240 34" fill="none" xmlns="http://www.w3.org/2000/svg">
<g clip-path="url(#clip0_604_1796)">
<path d="M13.4281 15.8317C17.4746 15.8317 21.6756 15.0013 24.693 14.3159L25.6201 19.3496C21.5951 20.412 17.4337 20.9715 13.2473 21.0132C3.6092 20.9997 0 17.3179 0 10.5158C0 3.71382 3.6092 0.0588379 13.2473 0.0588379C17.4337 0.100467 21.5951 0.659982 25.6201 1.72239L24.693 6.74261C21.6756 6.05999 17.4746 5.22687 13.4281 5.22687C6.80442 5.22687 5.24762 6.89042 5.24762 10.5158C5.24762 14.1413 6.80442 15.8317 13.4281 15.8317Z" fill="white"/>
<path d="M29.5664 20.6157V0.357422H47.1722C51.5015 0.357422 54.5159 2.10966 54.5159 7.4255C54.5159 11.8814 52.2216 14.0206 48.3296 14.378L47.1955 14.4076L48.589 15.3858L54.3614 20.6157H47.7902L41.4756 14.7328H34.7995V20.6157H29.5664ZM34.814 10.2178H46.6474C48.3733 10.2178 49.0963 9.56474 49.0963 7.90119C49.0963 6.08983 48.3733 5.52545 46.6474 5.52545H34.7995L34.814 10.2178Z" fill="white"/>
<path d="M78.2042 16.6946H65.2134L63.0736 20.6157H56.7852L68.2541 0.357422H75.216L86.6616 20.6157H80.3178L78.2042 16.6946ZM75.9098 12.5048L71.7176 4.7219L67.4903 12.5156L75.9098 12.5048Z" fill="white"/>
<path d="M115.219 20.6158H89.5234V15.8912L101.147 8.43607C103.287 7.30733 106.998 5.91253 108.826 5.34547L100.29 5.76203H89.9345V0.593994H115.091V5.34547L105.22 12.0642C102.797 13.4375 98.6193 15.05 96.1471 15.8912L104.986 15.445H115.219V20.6158Z" fill="white"/>
<path d="M118.363 0.357422H125.069L132.94 8.55425L140.841 0.357422H147.438L135.503 13.1283V20.6157H130.272V13.0907L118.363 0.357422Z" fill="white"/>
<path d="M177.134 16.6946H164.134L161.994 20.6157H155.715L167.184 0.357422H174.143L185.585 20.6157H179.248L177.134 16.6946ZM174.84 12.5048L170.638 4.71115L166.411 12.5048H174.84Z" fill="white"/>
<path d="M200.768 21C196.395 21 191.31 20.2878 188.138 19.3875L188.887 14.55C193.205 15.6831 197.672 16.2628 202.161 16.2727C206.283 16.2727 207.033 15.8857 207.033 14.6602C207.033 13.4347 206.388 13.2654 205.021 13.1149L195.304 12.4619C189.841 12.1662 187.855 10.1453 187.855 6.37202C187.855 1.84093 191.31 0 199.453 0C203.39 0.0714692 207.307 0.550151 211.129 1.42705L210.28 5.97159C206.331 5.14258 202.293 4.72341 198.243 4.72191C193.5 4.72191 192.803 5.02022 192.803 6.23765C192.803 7.36639 193.473 7.54377 195.071 7.6647L204.657 8.3312C209.709 8.65639 211.977 10.6774 211.977 14.8645C211.98 19.1295 209.455 21 200.768 21Z" fill="white"/>
<path d="M228.788 21C224.415 21 219.328 20.2878 216.159 19.3875L216.905 14.55C221.223 15.6827 225.689 16.2624 230.179 16.2727C234.304 16.2727 235.05 15.8857 235.05 14.6602C235.05 13.4347 234.406 13.2654 233.041 13.1149L223.316 12.4753C217.85 12.1797 215.867 10.1587 215.867 6.38546C215.876 1.84093 219.328 0 227.473 0C231.406 0.0724723 235.317 0.551146 239.135 1.42705L238.283 5.97159C234.335 5.14256 230.298 4.72339 226.249 4.72191C221.505 4.72191 220.809 5.02022 220.809 6.23765C220.809 7.36639 221.479 7.54377 223.077 7.6647L232.68 8.3312C237.732 8.65639 240 10.6774 240 14.8645C240 19.1295 237.473 21 228.788 21Z" fill="white"/>
</g>
<path d="M0 33.8925H2.47743C4.72037 33.8925 6.27004 32.3966 6.27004 30.4707C6.27004 28.5251 4.72037 27.0489 2.47743 27.0489H0V33.8925ZM0.80542 33.1788V27.7626H2.47743C4.28198 27.7626 5.43404 28.9553 5.43404 30.4707C5.43404 32.0056 4.28198 33.1788 2.47743 33.1788H0.80542Z" fill="white"/>
<path d="M10.8296 34C12.6138 34 13.8066 32.9637 13.8066 30.9693V27.0489H13.0012V31.0279C13.0012 32.5237 12.1652 33.2863 10.85 33.2863C9.48384 33.2863 8.66822 32.4553 8.66822 30.9791V27.0489H7.8628V31.0279C7.8628 32.9637 9.06584 34 10.8296 34Z" fill="white"/>
<path d="M15.7109 33.8925H18.8817C20.4415 33.8925 21.4712 33.1983 21.4712 32.0251C21.4712 31.067 20.7882 30.5978 19.942 30.3534C20.5027 30.1187 21.0736 29.6592 21.0736 28.7696C21.0736 28.3101 20.9105 27.9483 20.6148 27.655C20.2172 27.264 19.5647 27.0489 18.7491 27.0489H15.7109V33.8925ZM16.5062 30.0992V27.743H18.6778C19.6973 27.743 20.258 28.183 20.258 28.8575C20.258 29.6788 19.5851 30.0992 18.6166 30.0992H16.5062ZM16.5062 33.1983V30.7835H18.7593C20.0031 30.7835 20.6556 31.2137 20.6556 31.9567C20.6556 32.7388 19.9827 33.1983 18.902 33.1983H16.5062Z" fill="white"/>
<path d="M22.4569 33.8925H23.2827L24.1289 32.0838H28.0133L28.8493 33.8925H29.7159L26.4636 27H25.7092L22.4569 33.8925ZM24.445 31.3897L26.0762 27.8994L27.6972 31.3897H24.445Z" fill="white"/>
<path d="M31.1946 33.8925H32V27.0489H31.1946V33.8925Z" fill="white"/>
<defs>
<clipPath id="clip0_604_1796">
<rect width="240" height="21" fill="white"/>
</clipPath>
</defs>
</svg>
