<svg width="22" height="36" viewBox="0 0 22 36" fill="none" xmlns="http://www.w3.org/2000/svg">
<g clip-path="url(#clip0_292_2502)">
<path d="M1.99994 17.7983C2.16731 20.1596 2.92044 22.3949 5.34722 23.6806C2.75308 18.2605 4.56898 12.7563 8.6945 10.479C8.29283 11.1932 7.70705 12.7227 8.57735 13.4285C12.2343 10.0084 13.3891 4.47055 13.046 -0.0168457C16.8368 3.87391 18.7112 9.41173 15.5983 14.479C13.5815 17.7815 16.092 21.2016 18.2928 14.3613C21.0125 17.8991 22.7866 22.9663 21.5648 27.6806C18.6025 38.4285 2.24262 38.7815 0.250987 28.6386C-0.426837 25.3445 0.326301 21.4537 1.99994 17.7983Z" fill="currentColor"/>
<path d="M3.43084 15.7983C0.568918 10.4874 6.21745 8.40336 6.33461 5.42017C8.47687 10.8403 3.41411 11.437 3.43084 15.7983Z" fill="currentColor"/>
</g>
<defs>
<clipPath id="clip0_292_2502">
<rect width="22" height="36" fill="currentColor"/>
</clipPath>
</defs>
</svg>
