<svg width="26" height="26" viewBox="0 0 26 26" fill="none" xmlns="http://www.w3.org/2000/svg">
<path d="M11.972 18.5092C8.39185 18.5092 5.50781 15.6246 5.50781 12.0437C5.50781 8.46285 8.39185 5.57825 11.972 5.57825C15.5522 5.57825 18.4363 8.46285 18.4363 12.0437C18.4363 15.6246 15.5522 18.5092 11.972 18.5092ZM11.972 6.57294C8.93882 6.57294 6.50231 9.00993 6.50231 12.0437C6.50231 15.0775 8.93882 17.5145 11.972 17.5145C15.0052 17.5145 17.4418 15.0775 17.4418 12.0437C17.4418 9.00993 15.0052 6.57294 11.972 6.57294Z" fill="black"/>
<path d="M16.7851 16.1553L21.2504 20.6214L20.5473 21.3247L16.082 16.8585L16.7851 16.1553Z" fill="black"/>
</svg>
