<svg width="240" height="34" fill="none" xmlns="http://www.w3.org/2000/svg"><g clip-path="url(#a)" fill="#fff"><path d="M13.428 15.832c4.047 0 8.248-.83 11.265-1.516l.927 5.034a50.48 50.48 0 0 1-12.373 1.663C3.61 21 0 17.318 0 10.516S3.61.059 13.247.059C17.434.1 21.595.66 25.62 1.722l-.927 5.02c-3.017-.682-7.218-1.515-11.265-1.515-6.624 0-8.18 1.663-8.18 5.289 0 3.625 1.556 5.316 8.18 5.316ZM29.566 20.616V.357h17.606c4.33 0 7.344 1.753 7.344 7.069 0 4.455-2.294 6.595-6.186 6.952l-1.134.03 1.393.978 5.772 5.23h-6.57l-6.315-5.883H34.8v5.883h-5.234Zm5.248-10.398h11.833c1.726 0 2.45-.653 2.45-2.317 0-1.811-.724-2.376-2.45-2.376H34.8l.014 4.693ZM78.204 16.695h-12.99l-2.14 3.92h-6.289L68.255.358h6.961l11.446 20.259h-6.344l-2.114-3.921Zm-2.294-4.19-4.192-7.783-4.228 7.794 8.42-.011ZM115.219 20.616H89.523V15.89l11.624-7.455c2.14-1.129 5.851-2.523 7.679-3.09l-8.536.416H89.934V.594h25.157v4.751l-9.871 6.72c-2.423 1.373-6.6 2.985-9.073 3.826l8.839-.446h10.233v5.17ZM118.363.357h6.706l7.871 8.197 7.901-8.197h6.597l-11.935 12.771v7.488h-5.231V13.09L118.363.357ZM177.134 16.695h-13l-2.14 3.92h-6.279L167.184.358h6.959l11.442 20.259h-6.337l-2.114-3.921Zm-2.294-4.19-4.202-7.794-4.227 7.794h8.429ZM200.768 21c-4.373 0-9.458-.712-12.63-1.613l.749-4.837a52.791 52.791 0 0 0 13.274 1.723c4.122 0 4.872-.387 4.872-1.613 0-1.225-.645-1.395-2.012-1.545l-9.717-.653c-5.463-.296-7.449-2.317-7.449-6.09 0-4.531 3.455-6.372 11.598-6.372 3.937.071 7.854.55 11.676 1.427l-.849 4.545a58.724 58.724 0 0 0-12.037-1.25c-4.743 0-5.44.298-5.44 1.516 0 1.128.67 1.306 2.268 1.427l9.586.666c5.052.325 7.32 2.346 7.32 6.534.003 4.264-2.522 6.135-11.209 6.135ZM228.788 21c-4.373 0-9.46-.712-12.629-1.613l.746-4.837a52.822 52.822 0 0 0 13.274 1.723c4.125 0 4.871-.387 4.871-1.613 0-1.225-.644-1.395-2.009-1.545l-9.725-.64c-5.466-.295-7.449-2.316-7.449-6.09C215.876 1.841 219.328 0 227.473 0c3.933.072 7.844.551 11.662 1.427l-.852 4.545a58.692 58.692 0 0 0-12.034-1.25c-4.744 0-5.44.298-5.44 1.516 0 1.128.67 1.306 2.268 1.427l9.603.666c5.052.325 7.32 2.346 7.32 6.534 0 4.264-2.527 6.135-11.212 6.135Z"/></g><path d="M0 33.892h2.477c2.243 0 3.793-1.495 3.793-3.421 0-1.946-1.55-3.422-3.793-3.422H0v6.843Zm.805-.713v-5.416h1.672c1.805 0 2.957 1.192 2.957 2.708 0 1.535-1.152 2.708-2.957 2.708H.805ZM10.83 34c1.784 0 2.977-1.036 2.977-3.03v-3.921H13v3.979c0 1.496-.836 2.258-2.151 2.258-1.366 0-2.182-.83-2.182-2.307v-3.93h-.805v3.979C7.863 32.964 9.066 34 10.83 34ZM15.71 33.892h3.172c1.56 0 2.59-.694 2.59-1.867 0-.958-.684-1.427-1.53-1.672.56-.234 1.132-.694 1.132-1.583a1.5 1.5 0 0 0-.46-1.115c-.397-.391-1.05-.606-1.865-.606h-3.038v6.843Zm.796-3.793v-2.356h2.172c1.02 0 1.58.44 1.58 1.115 0 .82-.673 1.241-1.641 1.241h-2.11Zm0 3.1v-2.415h2.253c1.244 0 1.897.43 1.897 1.173 0 .782-.673 1.241-1.754 1.241h-2.396ZM22.457 33.892h.826l.846-1.808h3.884l.836 1.808h.867L26.464 27h-.755l-3.252 6.892Zm1.988-2.502 1.631-3.49 1.621 3.49h-3.252ZM31.195 33.892H32V27.05h-.805v6.843Z" fill="#fff"/><defs><clipPath id="a"><path fill="#fff" d="M0 0h240v21H0z"/></clipPath></defs></svg>